<svg width="1024" height="1024" viewBox="0 0 1024 1024" fill="none" xmlns="http://www.w3.org/2000/svg">
<rect x="15" y="15" width="994" height="994" rx="497" fill="white" stroke="black" stroke-width="30"/>
<path d="M907 512C804.65 512 804.025 512 677 512C549.975 512 549.925 512 447 512C447 384.975 549.975 282 677 282C804.025 282 907 384.975 907 512Z" fill="white"/>
<path d="M867 516C782.028 516 781.934 516 677 516C572.066 516 571.972 516 487 516C487 411.066 572.066 326 677 326C781.934 326 867 411.066 867 516Z" fill="black"/>
<path d="M817 516C754 516 754.32 516 677 516C599.68 516 599.533 516 537 516C537 438.68 599.68 376 677 376C754.32 376 817 438.68 817 516Z" fill="white"/>
<path d="M577 512C474.65 512 474.025 512 347 512C219.975 512 219.925 512 117 512C117 384.975 219.975 282 347 282C474.025 282 577 384.975 577 512Z" fill="white"/>
<path d="M537 516C452.028 516 451.934 516 347 516C242.066 516 241.972 516 157 516C157 411.066 242.066 326 347 326C451.934 326 537 411.066 537 516Z" fill="black"/>
<path d="M487 516C424 516 424.32 516 347 516C269.68 516 269.533 516 207 516C207 438.68 269.68 376 347 376C424.32 376 487 438.68 487 516Z" fill="white"/>
<path d="M117 512C219.35 512 219.975 512 347 512C474.026 512 474.075 512 577 512C577 639.026 474.025 742 347 742C219.974 742 117 639.025 117 512Z" fill="white"/>
<path d="M157 512C241.972 512 242.066 512 347 512C451.934 512 452.028 512 537 512C537 616.934 451.934 702 347 702C242.066 702 157 616.934 157 512Z" fill="black"/>
<path d="M207 512C270 512 269.68 512 347 512C424.32 512 424.467 512 487 512C487 589.32 424.32 652 347 652C269.68 652 207 589.32 207 512Z" fill="white"/>
<path d="M447 512C549.35 512 549.975 512 677 512C804.026 512 804.075 512 907 512C907 639.026 804.025 742 677 742C549.974 742 447 639.025 447 512Z" fill="white"/>
<path d="M487 512C571.972 512 572.066 512 677 512C781.934 512 782.028 512 867 512C867 616.934 781.934 702 677 702C572.066 702 487 616.934 487 512Z" fill="black"/>
<path d="M537 512C600 512 599.68 512 677 512C754.32 512 754.467 512 817 512C817 589.32 754.32 652 677 652C599.68 652 537 589.32 537 512Z" fill="white"/>
<rect x="745" y="430" width="164" height="164" fill="white"/>
</svg>
