<svg width="2038" height="2038" viewBox="0 0 2038 2038" fill="none" xmlns="http://www.w3.org/2000/svg">
<rect width="2038" height="2038" rx="1019" fill="white"/>
<path d="M2038 1019C1625.9 1019 1774.97 1019 1450.5 1019C1126.03 1019 1136.49 1019 863 1019C863 694.257 1126.03 431 1450.5 431C1774.97 431 2038 694.257 2038 1019Z" fill="white"/>
<path d="M1963 1019C1727 1019 1733.77 1019 1451 1019C1168.23 1019 1168 1019 939 1019C939 736.23 1168.23 507 1451 507C1733.77 507 1963 736.23 1963 1019Z" fill="black"/>
<path d="M1802 1019C1646 1019 1644.85 1019 1451 1019C1257.15 1019 1257.5 1019 1100 1019C1100 825.148 1257.15 668 1451 668C1644.85 668 1802 825.148 1802 1019Z" fill="white"/>
<path d="M5.14046e-05 1019C412.103 1019 263.033 1019 587.5 1019C911.967 1019 901.509 1019 1175 1019C1175 1343.74 911.967 1607 587.5 1607C263.033 1607 2.30146e-05 1343.74 5.14046e-05 1019Z" fill="white"/>
<path d="M76 1019C312 1019 305.23 1019 588 1019C870.77 1019 871 1019 1100 1019C1100 1301.77 870.77 1531 588 1531C305.23 1531 76 1301.77 76 1019Z" fill="black"/>
<path d="M237 1019C393 1019 394.148 1019 588 1019C781.852 1019 781.5 1019 939 1019C939 1212.85 781.852 1370 588 1370C394.148 1370 237 1212.85 237 1019Z" fill="white"/>
<path d="M1175 1019C762.897 1019 911.967 1019 587.5 1019C263.033 1019 273.491 1019 0.000102809 1019C4.60293e-05 694.257 263.033 431 587.5 431C911.967 431 1175 694.257 1175 1019Z" fill="white"/>
<path d="M1100 1019C864 1019 870.77 1019 588 1019C305.23 1019 305 1019 76.0001 1019C76 736.231 305.23 507.001 588 507.001C870.77 507.001 1100 736.231 1100 1019Z" fill="black"/>
<path d="M939 1019C783 1019 781.852 1019 588 1019C394.148 1019 394.5 1019 237 1019C237 825.149 394.148 668.001 588 668.001C781.852 668.001 939 825.149 939 1019Z" fill="white"/>
<path d="M863 1019C1275.1 1019 1126.03 1019 1450.5 1019C1774.97 1019 1764.51 1019 2038 1019C2038 1343.74 1774.97 1607 1450.5 1607C1126.03 1607 863 1343.74 863 1019Z" fill="white"/>
<path d="M939 1019C1175 1019 1168.23 1019 1451 1019C1733.77 1019 1734 1019 1963 1019C1963 1301.77 1733.77 1531 1451 1531C1168.23 1531 939 1301.77 939 1019Z" fill="black"/>
<path d="M1100 1019C1256 1019 1257.15 1019 1451 1019C1644.85 1019 1644.5 1019 1802 1019C1802 1212.85 1644.85 1370 1451 1370C1257.15 1370 1100 1212.85 1100 1019Z" fill="white"/>
<rect x="1740" y="890" width="258" height="258" fill="white"/>
</svg>
