<svg width="1024" height="1024" viewBox="0 0 1024 1024" fill="none" xmlns="http://www.w3.org/2000/svg">
<rect x="15" y="15" width="994" height="994" rx="497" fill="white" stroke="black" stroke-width="30"/>
<path d="M907 512C804.65 512 804.025 512 677 512C549.975 512 549.925 512 447 512C447 384.975 549.975 282 677 282C804.025 282 907 384.975 907 512Z" fill="white"/>
<path d="M857 516C776.5 516 776.411 516 677 516C577.589 516 577.5 516 497 516C497 416.589 577.589 336 677 336C776.411 336 857 416.589 857 516Z" fill="black"/>
<path d="M827 516C759.5 516 759.843 516 677 516C594.157 516 594 516 527 516C527 433.157 594.157 366 677 366C759.843 366 827 433.157 827 516Z" fill="white"/>
<path d="M577 512C474.65 512 474.025 512 347 512C219.975 512 219.925 512 117 512C117 384.975 219.975 282 347 282C474.025 282 577 384.975 577 512Z" fill="white"/>
<path d="M527 516C446.5 516 446.411 516 347 516C247.589 516 247.5 516 167 516C167 416.589 247.589 336 347 336C446.411 336 527 416.589 527 516Z" fill="black"/>
<path d="M497 516C429.5 516 429.843 516 347 516C264.157 516 264 516 197 516C197 433.157 264.157 366 347 366C429.843 366 497 433.157 497 516Z" fill="white"/>
<path d="M117 512C219.35 512 219.975 512 347 512C474.026 512 474.075 512 577 512C577 639.026 474.025 742 347 742C219.974 742 117 639.025 117 512Z" fill="white"/>
<path d="M167 512C247.5 512 247.589 512 347 512C446.411 512 446.5 512 527 512C527 611.411 446.411 692 347 692C247.589 692 167 611.411 167 512Z" fill="black"/>
<path d="M197 512C264.5 512 264.157 512 347 512C429.843 512 430 512 497 512C497 594.843 429.843 662 347 662C264.157 662 197 594.843 197 512Z" fill="white"/>
<path d="M447 512C549.35 512 549.975 512 677 512C804.026 512 804.075 512 907 512C907 639.026 804.025 742 677 742C549.974 742 447 639.025 447 512Z" fill="white"/>
<path d="M497 512C577.5 512 577.589 512 677 512C776.411 512 776.5 512 857 512C857 611.411 776.411 692 677 692C577.589 692 497 611.411 497 512Z" fill="black"/>
<path d="M527 512C594.5 512 594.157 512 677 512C759.843 512 760 512 827 512C827 594.843 759.843 662 677 662C594.157 662 527 594.843 527 512Z" fill="white"/>
<rect x="745" y="430" width="164" height="164" fill="white"/>
</svg>
